<svg width="32" height="32" viewBox="0 0 32 32" fill="none" xmlns="http://www.w3.org/2000/svg">
<path d="M0 0H32V32H0V0Z" fill="white"/>
<path d="M7 8C7.68081 8.42748 8.54548 8.4125 9.32247 8.43192C11.6924 8.49117 14.0682 8.44608 16.4386 8.44608C19.3481 8.44608 22.2598 8.47802 25.1691 8.43192C26.0603 8.4178 26.9629 8.41909 27.8385 8.25491M14.5834 9.08336C16.278 10.778 17.6224 12.7761 18.8885 14.8046C19.9689 16.5356 20.8469 18.2656 20.9596 20.3381C21.0071 21.2109 20.9529 22.0861 20.864 22.9544C20.7516 24.0521 20.6299 25.2094 20.2763 26.2611C19.8556 27.5125 18.9072 27.9051 17.6706 28.0596C15.6816 28.3083 13.6522 28.0612 11.7157 27.5852C10.8415 27.3703 9.97856 27.1033 9.12775 26.8099C8.51318 26.598 7.80989 26.3935 7.2726 26.0098C6.80634 25.6767 7.09921 25.3875 7.38236 25.0787" stroke="#FB7185" stroke-width="7" stroke-linecap="round"/>
</svg>
